<mxfile host="app.diagrams.net" modified="2023-03-30T14:52:21.804Z" agent="Mozilla/5.0 (Windows NT 10.0; Win64; x64) AppleWebKit/537.36 (KHTML, like Gecko) Chrome/111.0.0.0 Safari/537.36" etag="S6s8IiUa_G6NyaG4rLpH" version="21.1.2" type="github">
  <diagram id="prtHgNgQTEPvFCAcTncT" name="Page-1">
    <mxGraphModel dx="2062" dy="1805" grid="1" gridSize="10" guides="1" tooltips="1" connect="1" arrows="1" fold="1" page="1" pageScale="1" pageWidth="827" pageHeight="1169" math="0" shadow="0">
      <root>
        <mxCell id="0" />
        <mxCell id="1" parent="0" />
        <mxCell id="dNxyNK7c78bLwvsdeMH5-11" value="yan-cache项目架构" style="swimlane;html=1;startSize=20;horizontal=1;containerType=tree;glass=0;" parent="1" vertex="1">
          <mxGeometry x="-530" y="-10" width="1440" height="610" as="geometry" />
        </mxCell>
        <mxCell id="bj3f3ybngnkuZfRFfsyG-2" value="yan-cache" style="rounded=0;whiteSpace=wrap;html=1;" vertex="1" parent="dNxyNK7c78bLwvsdeMH5-11">
          <mxGeometry x="659" y="50" width="120" height="60" as="geometry" />
        </mxCell>
        <mxCell id="bj3f3ybngnkuZfRFfsyG-3" value="" style="edgeStyle=orthogonalEdgeStyle;rounded=0;orthogonalLoop=1;jettySize=auto;html=1;" edge="1" source="bj3f3ybngnkuZfRFfsyG-2" target="bj3f3ybngnkuZfRFfsyG-4" parent="dNxyNK7c78bLwvsdeMH5-11">
          <mxGeometry relative="1" as="geometry" />
        </mxCell>
        <mxCell id="bj3f3ybngnkuZfRFfsyG-4" value="cache-api&lt;br&gt;接口" style="rounded=0;whiteSpace=wrap;html=1;fillColor=#f8cecc;strokeColor=#b85450;" vertex="1" parent="dNxyNK7c78bLwvsdeMH5-11">
          <mxGeometry x="130" y="150" width="120" height="60" as="geometry" />
        </mxCell>
        <mxCell id="bj3f3ybngnkuZfRFfsyG-5" value="" style="edgeStyle=orthogonalEdgeStyle;rounded=0;orthogonalLoop=1;jettySize=auto;html=1;" edge="1" source="bj3f3ybngnkuZfRFfsyG-2" target="bj3f3ybngnkuZfRFfsyG-6" parent="dNxyNK7c78bLwvsdeMH5-11">
          <mxGeometry relative="1" as="geometry" />
        </mxCell>
        <mxCell id="bj3f3ybngnkuZfRFfsyG-6" value="cache-core&lt;br&gt;核心逻辑" style="rounded=0;whiteSpace=wrap;html=1;fillColor=#f8cecc;strokeColor=#b85450;" vertex="1" parent="dNxyNK7c78bLwvsdeMH5-11">
          <mxGeometry x="659" y="150" width="120" height="60" as="geometry" />
        </mxCell>
        <mxCell id="bj3f3ybngnkuZfRFfsyG-7" value="" style="edgeStyle=orthogonalEdgeStyle;rounded=0;orthogonalLoop=1;jettySize=auto;html=1;" edge="1" source="bj3f3ybngnkuZfRFfsyG-2" target="bj3f3ybngnkuZfRFfsyG-8" parent="dNxyNK7c78bLwvsdeMH5-11">
          <mxGeometry relative="1" as="geometry" />
        </mxCell>
        <mxCell id="bj3f3ybngnkuZfRFfsyG-8" value="cache-test&lt;br&gt;单元测试" style="rounded=0;whiteSpace=wrap;html=1;fillColor=#f8cecc;strokeColor=#b85450;" vertex="1" parent="dNxyNK7c78bLwvsdeMH5-11">
          <mxGeometry x="1193.5" y="150" width="120" height="60" as="geometry" />
        </mxCell>
        <mxCell id="bj3f3ybngnkuZfRFfsyG-9" value="" style="edgeStyle=orthogonalEdgeStyle;rounded=0;orthogonalLoop=1;jettySize=auto;html=1;" edge="1" target="bj3f3ybngnkuZfRFfsyG-10" source="bj3f3ybngnkuZfRFfsyG-6" parent="dNxyNK7c78bLwvsdeMH5-11">
          <mxGeometry relative="1" as="geometry">
            <mxPoint x="759" y="160" as="sourcePoint" />
          </mxGeometry>
        </mxCell>
        <mxCell id="bj3f3ybngnkuZfRFfsyG-10" value="淘汰机制模块" style="rounded=0;whiteSpace=wrap;html=1;" vertex="1" parent="dNxyNK7c78bLwvsdeMH5-11">
          <mxGeometry x="659" y="250" width="120" height="60" as="geometry" />
        </mxCell>
        <mxCell id="bj3f3ybngnkuZfRFfsyG-11" value="" style="edgeStyle=orthogonalEdgeStyle;rounded=0;orthogonalLoop=1;jettySize=auto;html=1;" edge="1" target="bj3f3ybngnkuZfRFfsyG-12" source="bj3f3ybngnkuZfRFfsyG-6" parent="dNxyNK7c78bLwvsdeMH5-11">
          <mxGeometry relative="1" as="geometry">
            <mxPoint x="759" y="160" as="sourcePoint" />
          </mxGeometry>
        </mxCell>
        <mxCell id="bj3f3ybngnkuZfRFfsyG-12" value="过期数据处理模块" style="rounded=0;whiteSpace=wrap;html=1;" vertex="1" parent="dNxyNK7c78bLwvsdeMH5-11">
          <mxGeometry x="943.5" y="250" width="120" height="60" as="geometry" />
        </mxCell>
        <mxCell id="bj3f3ybngnkuZfRFfsyG-15" value="" style="edgeStyle=orthogonalEdgeStyle;rounded=0;orthogonalLoop=1;jettySize=auto;html=1;" edge="1" target="bj3f3ybngnkuZfRFfsyG-16" source="bj3f3ybngnkuZfRFfsyG-6" parent="dNxyNK7c78bLwvsdeMH5-11">
          <mxGeometry relative="1" as="geometry">
            <mxPoint x="759" y="160" as="sourcePoint" />
          </mxGeometry>
        </mxCell>
        <mxCell id="bj3f3ybngnkuZfRFfsyG-16" value="监听器模块" style="rounded=0;whiteSpace=wrap;html=1;" vertex="1" parent="dNxyNK7c78bLwvsdeMH5-11">
          <mxGeometry x="380" y="250" width="120" height="60" as="geometry" />
        </mxCell>
        <mxCell id="bj3f3ybngnkuZfRFfsyG-17" value="" style="edgeStyle=orthogonalEdgeStyle;rounded=0;orthogonalLoop=1;jettySize=auto;html=1;" edge="1" target="bj3f3ybngnkuZfRFfsyG-18" source="bj3f3ybngnkuZfRFfsyG-16" parent="dNxyNK7c78bLwvsdeMH5-11">
          <mxGeometry relative="1" as="geometry">
            <mxPoint x="523" y="170" as="sourcePoint" />
          </mxGeometry>
        </mxCell>
        <mxCell id="bj3f3ybngnkuZfRFfsyG-18" value="删除数据监听器" style="rounded=0;whiteSpace=wrap;html=1;labelBackgroundColor=none;labelBorderColor=none;fillColor=#d5e8d4;strokeColor=#82b366;" vertex="1" parent="dNxyNK7c78bLwvsdeMH5-11">
          <mxGeometry x="250" y="350" width="120" height="60" as="geometry" />
        </mxCell>
        <mxCell id="bj3f3ybngnkuZfRFfsyG-19" value="" style="edgeStyle=orthogonalEdgeStyle;rounded=0;orthogonalLoop=1;jettySize=auto;html=1;" edge="1" target="bj3f3ybngnkuZfRFfsyG-20" source="bj3f3ybngnkuZfRFfsyG-16" parent="dNxyNK7c78bLwvsdeMH5-11">
          <mxGeometry relative="1" as="geometry">
            <mxPoint x="523" y="170" as="sourcePoint" />
          </mxGeometry>
        </mxCell>
        <mxCell id="bj3f3ybngnkuZfRFfsyG-20" value="慢日志监听器" style="rounded=0;whiteSpace=wrap;html=1;labelBackgroundColor=none;labelBorderColor=none;fillColor=#d5e8d4;strokeColor=#82b366;" vertex="1" parent="dNxyNK7c78bLwvsdeMH5-11">
          <mxGeometry x="380" y="350" width="120" height="60" as="geometry" />
        </mxCell>
        <mxCell id="bj3f3ybngnkuZfRFfsyG-21" value="" style="edgeStyle=orthogonalEdgeStyle;rounded=0;orthogonalLoop=1;jettySize=auto;html=1;" edge="1" target="bj3f3ybngnkuZfRFfsyG-22" source="bj3f3ybngnkuZfRFfsyG-10" parent="dNxyNK7c78bLwvsdeMH5-11">
          <mxGeometry relative="1" as="geometry">
            <mxPoint x="189" y="200" as="sourcePoint" />
          </mxGeometry>
        </mxCell>
        <mxCell id="bj3f3ybngnkuZfRFfsyG-22" value="FIFO淘汰机制" style="rounded=0;whiteSpace=wrap;html=1;fillColor=#d5e8d4;strokeColor=#82b366;" vertex="1" parent="dNxyNK7c78bLwvsdeMH5-11">
          <mxGeometry x="520" y="350" width="120" height="60" as="geometry" />
        </mxCell>
        <mxCell id="bj3f3ybngnkuZfRFfsyG-23" value="" style="edgeStyle=orthogonalEdgeStyle;rounded=0;orthogonalLoop=1;jettySize=auto;html=1;" edge="1" target="bj3f3ybngnkuZfRFfsyG-24" source="bj3f3ybngnkuZfRFfsyG-10" parent="dNxyNK7c78bLwvsdeMH5-11">
          <mxGeometry relative="1" as="geometry">
            <mxPoint x="189" y="200" as="sourcePoint" />
          </mxGeometry>
        </mxCell>
        <mxCell id="bj3f3ybngnkuZfRFfsyG-24" value="LRU淘汰机制" style="rounded=0;whiteSpace=wrap;html=1;fillColor=#d5e8d4;strokeColor=#82b366;" vertex="1" parent="dNxyNK7c78bLwvsdeMH5-11">
          <mxGeometry x="659" y="350" width="120" height="60" as="geometry" />
        </mxCell>
        <mxCell id="bj3f3ybngnkuZfRFfsyG-25" value="" style="edgeStyle=orthogonalEdgeStyle;rounded=0;orthogonalLoop=1;jettySize=auto;html=1;" edge="1" target="bj3f3ybngnkuZfRFfsyG-26" source="bj3f3ybngnkuZfRFfsyG-10" parent="dNxyNK7c78bLwvsdeMH5-11">
          <mxGeometry relative="1" as="geometry">
            <mxPoint x="189" y="200" as="sourcePoint" />
          </mxGeometry>
        </mxCell>
        <mxCell id="bj3f3ybngnkuZfRFfsyG-26" value="LFU淘汰机制" style="rounded=0;whiteSpace=wrap;html=1;fillColor=#d5e8d4;strokeColor=#82b366;" vertex="1" parent="dNxyNK7c78bLwvsdeMH5-11">
          <mxGeometry x="800" y="350" width="120" height="60" as="geometry" />
        </mxCell>
        <mxCell id="bj3f3ybngnkuZfRFfsyG-27" value="" style="edgeStyle=orthogonalEdgeStyle;rounded=0;orthogonalLoop=1;jettySize=auto;html=1;" edge="1" target="bj3f3ybngnkuZfRFfsyG-28" source="bj3f3ybngnkuZfRFfsyG-12" parent="dNxyNK7c78bLwvsdeMH5-11">
          <mxGeometry relative="1" as="geometry">
            <mxPoint x="152.5" y="170" as="sourcePoint" />
          </mxGeometry>
        </mxCell>
        <mxCell id="bj3f3ybngnkuZfRFfsyG-28" value="惰性删除" style="rounded=0;whiteSpace=wrap;html=1;fillColor=#d5e8d4;strokeColor=#82b366;" vertex="1" parent="dNxyNK7c78bLwvsdeMH5-11">
          <mxGeometry x="943.5" y="350" width="120" height="60" as="geometry" />
        </mxCell>
        <mxCell id="bj3f3ybngnkuZfRFfsyG-29" value="" style="edgeStyle=orthogonalEdgeStyle;rounded=0;orthogonalLoop=1;jettySize=auto;html=1;" edge="1" target="bj3f3ybngnkuZfRFfsyG-30" source="bj3f3ybngnkuZfRFfsyG-12" parent="dNxyNK7c78bLwvsdeMH5-11">
          <mxGeometry relative="1" as="geometry">
            <mxPoint x="152.5" y="170" as="sourcePoint" />
          </mxGeometry>
        </mxCell>
        <mxCell id="bj3f3ybngnkuZfRFfsyG-30" value="定时任务删除" style="rounded=0;whiteSpace=wrap;html=1;fillColor=#d5e8d4;strokeColor=#82b366;" vertex="1" parent="dNxyNK7c78bLwvsdeMH5-11">
          <mxGeometry x="1073.5" y="350" width="120" height="60" as="geometry" />
        </mxCell>
      </root>
    </mxGraphModel>
  </diagram>
</mxfile>
